<svg width="749" height="345" viewBox="0 0 749 345" fill="none" xmlns="http://www.w3.org/2000/svg">
<path d="M782.25 1.56367C747.888 1.61145 713.459 -3.07487 683.033 15.9383C664.093 27.7736 651.844 46.2021 641.229 65.4059C627.84 89.6298 618.722 117.703 597.696 135.812C576.67 153.921 550.649 164.878 524.887 170.751C493.667 177.869 464.042 157.157 442.936 136.195C416.997 110.432 398.731 75.438 398.248 38.2754C398.087 25.9285 407.486 12.2598 420.653 10.6922C443.4 7.98395 446.814 76.0201 447.393 89.2914C448.154 106.721 449.193 125.531 443.782 142.391C432.507 177.519 378.268 190.18 370.025 192.112C361.782 194.045 305.638 208.513 251.227 217.568C196.815 226.624 133.933 221.525 79.6634 239.246C52.1517 248.229 23.401 264.932 5.61717 288.172C-8.01817 305.99 -7.97868 322.106 -9.79887 343.381" stroke="url(#paint0_linear_533_1997)" stroke-width="2.17696" stroke-linecap="round" stroke-dasharray="6.53 6.53"/>
<defs>
<linearGradient id="paint0_linear_533_1997" x1="-9.63803" y1="288.41" x2="755.708" y2="1.07578" gradientUnits="userSpaceOnUse">
<stop stop-color="#00A3F4" stop-opacity="0.42"/>
<stop offset="0.563099" stop-color="#00A4F4" stop-opacity="0.11"/>
<stop offset="0.887261" stop-color="#00A4F4" stop-opacity="0.6"/>
</linearGradient>
</defs>
</svg>
