<svg width="41" height="41" viewBox="0 0 41 41" fill="none" xmlns="http://www.w3.org/2000/svg">
<path d="M14.2824 1.34852C10.1859 2.76964 6.653 5.46699 4.20277 9.04435C1.75253 12.6217 0.514049 16.8905 0.669243 21.2238C0.824437 25.5571 2.36512 29.7263 5.065 33.1193C7.76488 36.5122 11.4816 38.9499 15.6693 40.0743C19.0644 40.9503 22.6214 40.9888 26.0347 40.1864C29.1267 39.4919 31.9854 38.0062 34.3307 35.875C36.7718 33.5891 38.5436 30.6811 39.4557 27.4636C40.4472 23.9647 40.6236 20.2852 39.9715 16.7075H20.9064V24.616H31.9476C31.727 25.8774 31.2541 27.0812 30.5573 28.1556C29.8605 29.2299 28.9542 30.1526 27.8925 30.8685C26.5442 31.7604 25.0244 32.3604 23.4305 32.6302C21.832 32.9275 20.1923 32.9275 18.5938 32.6302C16.9736 32.2953 15.441 31.6266 14.0934 30.6667C11.9286 29.1343 10.3031 26.9573 9.44887 24.4463C8.58023 21.8882 8.58023 19.115 9.44887 16.557C10.0569 14.7639 11.0621 13.1313 12.3893 11.7811C13.9082 10.2076 15.8312 9.08277 17.9473 8.53017C20.0633 7.97756 22.2907 8.01848 24.385 8.64844C26.0211 9.15066 27.5172 10.0281 28.7541 11.2109C29.9991 9.9724 31.2419 8.73065 32.4825 7.4857C33.1232 6.81625 33.8215 6.17883 34.4525 5.49336C32.5644 3.73637 30.3482 2.36922 27.9309 1.47024C23.5289 -0.128156 18.7122 -0.171111 14.2824 1.34852Z" fill="white"/>
<path d="M14.2815 1.34852C18.711 -0.172144 23.5276 -0.130319 27.93 1.46703C30.3478 2.37212 32.5629 3.74586 34.4484 5.50938C33.8077 6.19485 33.1319 6.83547 32.4784 7.50172C31.2356 8.7424 29.9939 9.9788 28.7532 11.2109C27.5163 10.0281 26.0202 9.15066 24.3841 8.64844C22.2905 8.01627 20.0632 7.97299 17.9466 8.52333C15.8299 9.07368 13.9058 10.1964 12.3852 11.7683C11.058 13.1185 10.0528 14.7511 9.44477 16.5441L2.80469 11.4031C5.18143 6.68992 9.29662 3.08469 14.2815 1.34852Z" fill="#E33629"/>
<path d="M1.04562 16.4961C1.40251 14.7273 1.99503 13.0144 2.80733 11.4031L9.44741 16.557C8.57877 19.115 8.57877 21.8882 9.44741 24.4462C7.23512 26.1546 5.02176 27.8715 2.80733 29.5969C0.773833 25.5491 0.15365 20.9372 1.04562 16.4961Z" fill="#F8BD00"/>
<path d="M20.9077 16.7043H39.9727C40.6248 20.282 40.4484 23.9615 39.457 27.4604C38.5448 30.6779 36.773 33.5859 34.332 35.8718C32.1891 34.1998 30.0366 32.5406 27.8937 30.8685C28.9561 30.1519 29.8629 29.2282 30.5597 28.1527C31.2565 27.0772 31.729 25.8721 31.9488 24.6096H20.9077C20.9045 21.9766 20.9077 19.3405 20.9077 16.7043Z" fill="#587DBD"/>
<path d="M2.80469 29.5969C5.01911 27.8885 7.23247 26.1717 9.44477 24.4462C10.3007 26.9581 11.9285 29.1353 14.0957 30.6667C15.4474 31.6221 16.9834 32.2853 18.6057 32.6142C20.2042 32.9114 21.8439 32.9114 23.4424 32.6142C25.0363 32.3444 26.5561 31.7443 27.9044 30.8525C30.0473 32.5245 32.1998 34.1837 34.3427 35.8558C31.9976 37.9882 29.1389 39.4749 26.0466 40.1704C22.6333 40.9728 19.0763 40.9343 15.6813 40.0583C12.9961 39.3413 10.4879 38.0774 8.31406 36.3459C6.01313 34.5191 4.13384 32.2169 2.80469 29.5969Z" fill="#319F43"/>
</svg>
