<svg width="24" height="24" viewBox="0 0 24 24" fill="none" xmlns="http://www.w3.org/2000/svg">
<path d="M6.07279 0.0150627C5.35504 0.0160606 4.66701 0.247827 4.16005 0.659376C3.65309 1.07093 3.36874 1.62855 3.36955 2.20957C3.37036 2.79059 3.65626 3.34741 4.16436 3.75755C4.67246 4.16769 5.36113 4.39754 6.07888 4.39654L16.904 4.38149C17.2594 4.381 17.6113 4.32384 17.9395 4.21329C18.2676 4.10274 18.5658 3.94096 18.8168 3.73718C19.0678 3.5334 19.2668 3.29162 19.4024 3.02564C19.5381 2.75965 19.6077 2.47468 19.6073 2.18699C19.6069 1.8993 19.5365 1.61452 19.4001 1.34892C19.2637 1.08331 19.0641 0.842083 18.8125 0.639004C18.5609 0.435925 18.2623 0.274971 17.9338 0.165332C17.6053 0.0556931 17.2533 -0.000482837 16.8979 1.13069e-05L6.07279 0.0150627Z" fill="#0069AB"/>
<path fill-rule="evenodd" clip-rule="evenodd" d="M5.70083 6.58781C5.29625 6.58847 4.89695 6.66255 4.5323 6.8046C4.16765 6.94664 3.84683 7.15316 3.59366 7.40873L0.59441 10.4379C0.208816 10.8276 -0.000879228 11.3125 3.29701e-05 11.8116L0.0125799 20.8356C0.0133878 21.4166 0.299289 21.9734 0.807387 22.3835C1.31549 22.7937 2.00416 23.0235 2.72191 23.0225L20.3121 22.9981C21.0299 22.9971 21.7179 22.7653 22.2249 22.3538C22.7318 21.9422 23.0162 21.3846 23.0154 20.8036L23.0028 11.7794C23.0023 11.2802 22.7912 10.7961 22.4045 10.4075L19.3975 7.38665C19.1434 7.13159 18.8219 6.92596 18.4565 6.78492C18.0912 6.64391 17.6912 6.57105 17.2864 6.57171L5.70083 6.58781ZM12.8545 11.507C12.8536 10.902 12.2471 10.4125 11.4998 10.4135C10.7525 10.4145 10.1473 10.9058 10.1482 11.5107L10.1512 13.7015L7.44494 13.7052C6.69762 13.7063 6.09248 14.1975 6.09332 14.8025C6.09416 15.4075 6.70067 15.897 7.44799 15.896L10.1543 15.8922L10.1573 18.083C10.1582 18.6879 10.7647 19.1775 11.512 19.1765C12.2593 19.1754 12.8645 18.6842 12.8636 18.0792L12.8606 15.8885L15.5669 15.8847C16.3142 15.8837 16.9193 15.3924 16.9185 14.7874C16.9176 14.1825 16.3111 13.6929 15.5638 13.694L12.8575 13.6977L12.8545 11.507Z" fill="#0069AB"/>
</svg>
