<?xml version="1.0" encoding="UTF-8"?>
<svg id="Layer_2" data-name="Layer 2" xmlns="http://www.w3.org/2000/svg" viewBox="0 0 181 177.7">
  <defs>
    <style>
      .cls-1 {
        fill: #fff;
      }
    </style>
  </defs>
  <g id="Layer_1-2" data-name="Layer 1">
    <g>
      <path class="cls-1" d="M181,87.2c0,50-40.5,90.5-90.5,90.5S0,137.2,0,87.2,28.1,10.6,66.3,0v26.2c-24.3,9.6-41.4,33.3-41.4,61s29.4,65.6,65.6,65.6,65.6-29.4,65.6-65.6-17.2-51.4-41.4-61V0c38.2,10.6,66.3,45.6,66.3,87.2Z"/>
      <g>
        <path class="cls-1" d="M94.22,85.45c-.93.67-2.02,1.26-3.03,1.77s-1.1,0-1.35-.42,0-1.1.42-1.35c1.01-.51,1.94-1.01,2.78-1.6.93-.59,1.77-1.26,2.53-2.02,0,0,.17,0,.25-.17.42-.17.84,0,1.18.25s.34,1.01,0,1.43c-.84.76-1.77,1.52-2.78,2.19h0v-.08Z"/>
        <path class="cls-1" d="M94.81,94.64c.51-.25,1.1,0,1.35.42s0,1.1-.42,1.35c-3.37,1.69-7.33,1.52-10.62-.34-1.43-.84-2.61-1.94-3.54-3.29-.34-.42-.17-1.1.25-1.43h.17c.42-.25,1.01,0,1.26.34.76,1.1,1.77,2.02,2.95,2.7,2.7,1.6,5.9,1.69,8.68.34h-.08v-.08Z"/>
        <path class="cls-1" d="M86.64,78.21c-1.85.93-3.29,2.36-4.21,4.3-.42,1.01-.76,2.02-.84,3.12,0,1.01,0,2.02.25,3.03.17.51-.17,1.1-.76,1.18-.51.17-1.1-.17-1.18-.76-.34-1.18-.42-2.44-.25-3.71,0-1.35.51-2.61,1.01-3.79.51-1.1,1.26-2.11,2.11-3.03s1.94-1.69,3.03-2.19c.51-.25,1.1,0,1.35.42s0,1.1-.42,1.35h0l-.08.08Z"/>
        <path class="cls-1" d="M99.45,80.65c-.34.42-1.01.51-1.43.17s-.51-1.01-.17-1.43c.67-.84,1.35-1.77,1.85-2.78s.25-.34.42-.42c.25-.17.67-.17.93,0,.51.25.67.93.34,1.35-.59,1.01-1.26,2.02-2.11,3.03h.17v.08Z"/>
        <path class="cls-1" d="M81.5,96.32c-.42.34-1.01.34-1.43,0-.93-1.01-1.77-2.19-2.36-3.45v-.25c-.59-1.18-1.01-2.44-1.18-3.79-.17-1.18-.25-2.44-.17-3.71,0-1.18.34-2.44.76-3.54.42-1.26,1.01-2.44,1.77-3.45,0-.17.25-.25.42-.34.34-.17.67-.17,1.01,0,.42.34.59.93.25,1.43-.67.93-1.18,1.94-1.52,3.03-.34,1.01-.59,2.02-.67,3.12,0,1.1,0,2.11.17,3.2s.51,2.19,1.01,3.2v.17c.67,1.1,1.35,2.11,2.19,2.95s.34,1.01,0,1.43h-.25,0Z"/>
        <path class="cls-1" d="M63.05,91.18c0-.42.17-.84.51-1.1h.25c.59,0,1.1.25,1.18.84.25,1.52.67,2.95,1.18,4.38.34.93.76,1.85,1.18,2.78.25.59.59,1.1.84,1.6.93,1.6,2.02,3.03,3.2,4.38.34.42.34,1.01,0,1.43-.42.34-1.01.34-1.43,0-1.35-1.43-2.53-3.03-3.45-4.72-.34-.59-.67-1.18-.93-1.77-.51-1.01-.93-2.02-1.26-3.03-.59-1.52-.93-3.12-1.26-4.72h0v-.08Z"/>
        <path class="cls-1" d="M63.89,78.21c0-.25.25-.51.51-.59s.51-.17.76,0c.51.17.84.76.67,1.26-.42,1.26-.67,2.53-.84,3.79-.17,1.35-.25,2.7-.25,4.04s-.42,1.01-1.01,1.01-1.01-.42-1.01-1.01c0-1.43,0-2.86.34-4.38.17-1.35.51-2.78.93-4.13h-.08Z"/>
        <path class="cls-1" d="M69.79,67.67s.17-.17.34-.25c.34-.17.76-.17,1.1.17.42.34.42,1.01,0,1.43-.84.93-1.6,1.94-2.27,2.95s-1.26,2.11-1.85,3.29-.84.67-1.35.51c-.51-.25-.67-.84-.51-1.35.59-1.18,1.26-2.36,1.94-3.54.76-1.1,1.6-2.19,2.44-3.2h.17,0Z"/>
        <path class="cls-1" d="M83.35,114.94c4.47,1.18,9.1,1.26,13.57.34.51,0,1.1.25,1.18.76,0,.51-.25,1.1-.76,1.18-2.36.51-4.89.76-7.33.67-2.44,0-4.8-.42-7.16-1.01-3.12-.84-6.07-2.11-8.76-3.79-.51-.25-.59-.93-.34-1.35,0-.17.25-.25.42-.34.34-.17.67-.17,1.01,0,2.53,1.6,5.31,2.78,8.26,3.54h-.08Z"/>
        <path class="cls-1" d="M69.62,107.02c.42.42.42,1.01,0,1.43s-1.01.34-1.43,0c-1.52-1.52-2.78-3.2-3.96-4.97-.59-1.01-1.18-1.94-1.69-3.03-.34-.67-.67-1.35-.93-2.11-.17-.51,0-1.01.51-1.26h0c.51-.17,1.1,0,1.26.59.25.67.59,1.35.84,1.94.51,1.01,1.01,1.94,1.6,2.86,1.1,1.69,2.36,3.29,3.71,4.72h0v-.17h.08Z"/>
        <path class="cls-1" d="M59.93,82.76h.51c.59,0,.93.51.93,1.1-.17,1.52-.17,2.95,0,4.47,0,1.52.34,3.12.67,4.63,0,.51-.25,1.1-.76,1.18-.51,0-1.1-.25-1.18-.76-.34-1.6-.59-3.29-.67-4.97v-4.8c0-1.6.25-.67.59-.76h0l-.08-.08Z"/>
        <path class="cls-1" d="M63.39,75.43c-.51,1.35-.93,2.7-1.26,4.04-.17.51-.67.84-1.18.76-.51-.17-.84-.67-.76-1.18.34-1.43.84-2.95,1.35-4.3.59-1.43,1.18-2.78,1.94-4.04,0-.17.25-.34.42-.42.25-.17.67-.17.93,0,.51.25.67.93.34,1.35-.67,1.18-1.35,2.53-1.85,3.79,0,0,.08,0,.08,0Z"/>
        <path class="cls-1" d="M101.3,73.57c.42-1.1.76-2.19,1.01-3.37s.42-2.36.51-3.62v-3.88c-.17-1.35-.42-2.7-.76-3.96-.17-.51,0-1.01.51-1.18h.17c.51-.17,1.1.17,1.26.67.42,1.43.67,2.86.84,4.38.17,1.35.17,2.78,0,4.13,0,1.35-.25,2.61-.59,3.96-.25,1.26-.67,2.44-1.1,3.62-.17.51-.76.76-1.26.59s-.76-.76-.59-1.26h0v-.08Z"/>
        <path class="cls-1" d="M59.85,70.37c.76-1.52,1.69-3.03,2.7-4.38,1.1-1.52,2.36-3.03,3.79-4.38,0,0,.17-.17.25-.17.42-.17.84,0,1.18.17.42.42.42,1.01,0,1.43-1.26,1.26-2.53,2.7-3.54,4.13-.93,1.35-1.85,2.7-2.53,4.13s-1.35,2.86-1.85,4.38-.76.76-1.26.59-.84-.76-.59-1.26c.59-1.6,1.18-3.12,1.94-4.63h-.08Z"/>
        <path class="cls-1" d="M56.48,83.94h.51c.59,0,1.01.51.93,1.01,0,1.6,0,3.29.17,4.89.17,1.69.51,3.37.93,5.06.42,1.77,1.1,3.45,1.85,5.14.17.34.34.76.51,1.1.67,1.43,1.52,2.78,2.36,4.04,1.26,1.77,2.61,3.45,4.21,4.97,1.85,1.77,3.88,3.29,6.07,4.63,2.78,1.69,5.81,2.86,9.02,3.71,7.41,1.85,15.25,1.01,22.16-2.36h.42c.51-.25,1.1,0,1.35.42s0,1.1-.42,1.35h0s-.17,0-.25.17h0c-3.71,1.85-7.67,2.95-11.71,3.37-3.96.42-7.92,0-11.8-.84-3.37-.84-6.57-2.11-9.61-3.88-2.36-1.35-4.47-3.03-6.4-4.89-1.69-1.6-3.2-3.37-4.47-5.31-.93-1.35-1.77-2.78-2.53-4.3-.17-.34-.34-.76-.51-1.18-.76-1.77-1.43-3.54-1.94-5.39-.42-1.77-.76-3.54-1.01-5.31-.17-1.69-.25-3.45-.17-5.22,0-.34.25-.67.59-.84h0l-.17-.17v-.17h-.08Z"/>
        <path class="cls-1" d="M71.47,118.23c0-.17.25-.34.42-.42.25-.17.67-.17.93,0,3.12,1.77,6.4,3.03,9.86,3.88,8.09,1.85,16.6.93,24.01-2.7h.34c7.75-3.88,14.32-9.18,19.72-15.84.76-.93,1.43-1.85,2.11-2.78,0-.17.25-.25.34-.34.34-.17.67-.17,1.01,0,.42.34.59.93.25,1.43-.67,1.01-1.43,1.94-2.19,2.86-2.7,3.37-5.81,6.49-9.18,9.18-3.45,2.78-7.25,5.22-11.21,7.25h-.25c-3.96,1.94-8.26,3.2-12.64,3.62-4.21.42-8.51.17-12.72-.76-3.62-.84-7.16-2.19-10.36-4.04-.51-.25-.67-.93-.34-1.35h0v.17-.17h-.08Z"/>
        <path class="cls-1" d="M60.18,107.44c.42-.17.93,0,1.26.34,1.35,1.94,2.95,3.71,4.72,5.31.42.34.42,1.01,0,1.43-.34.42-1.01.42-1.43,0-1.85-1.69-3.54-3.54-4.97-5.56-.34-.42-.25-1.1.25-1.43h.17v-.08Z"/>
        <path class="cls-1" d="M56.48,103.4v-.25c-.93-1.85-1.69-3.79-2.27-5.81-.59-1.85-1.01-3.79-1.26-5.73-.25-1.85-.34-3.79-.34-5.65s.25-.76.59-.93h.42c.59,0,1.01.51,1.01,1.01,0,1.77,0,3.54.34,5.31.25,1.85.67,3.62,1.18,5.48.59,1.85,1.26,3.71,2.11,5.48v.25c.25.51,0,1.1-.42,1.35s-1.1,0-1.35-.42h0v-.08Z"/>
        <path class="cls-1" d="M56.22,70.03c.84-1.77,1.77-3.45,2.86-5.06,0-.17.25-.25.42-.34.34-.17.67-.17,1.01,0,.42.34.59.93.25,1.43-1.01,1.52-1.94,3.12-2.7,4.8-.76,1.6-1.35,3.2-1.85,4.89-.51,1.6-.93,3.37-1.18,5.06,0,.59-.59.93-1.18.84-.59,0-.93-.59-.84-1.18.25-1.77.67-3.54,1.26-5.31.51-1.77,1.18-3.45,2.02-5.14h-.08Z"/>
        <path class="cls-1" d="M51.42,81.41c-.25,1.85-.34,3.79-.34,5.65s.17,3.88.51,5.81c0,.59-.25,1.1-.84,1.18s-1.1-.25-1.18-.84c-.34-2.02-.51-4.04-.59-6.07,0-2.02,0-3.96.34-5.98.25-1.94.67-3.96,1.18-5.81,0-.25.25-.51.51-.67.17,0,.42-.17.67,0,.51.17.84.67.67,1.26-.51,1.85-.84,3.71-1.1,5.56h.17v-.08Z"/>
        <path class="cls-1" d="M53.11,98.77c.59,1.77,1.35,3.54,2.19,5.22s.17.42.34.59c1.01,2.02,2.27,3.96,3.62,5.81,1.52,2.02,3.29,3.88,5.22,5.56,2.19,1.94,4.63,3.71,7.25,5.14.51.25.67.84.42,1.35s-.84.67-1.35.42c-2.7-1.52-5.31-3.29-7.67-5.39-2.02-1.77-3.79-3.71-5.48-5.9-1.43-1.85-2.7-3.96-3.88-6.07,0-.17-.25-.42-.34-.67-.84-1.77-1.69-3.62-2.27-5.56-.17-.51,0-1.01.51-1.18h.17c.51-.17,1.1,0,1.26.67h0Z"/>
        <path class="cls-1" d="M81.67,125.22c.17,0,.42-.17.67,0,8.85,1.94,17.69.84,25.87-3.12h.51c4.04-2.02,7.84-4.47,11.37-7.33h.17c.42-.17.93,0,1.26.25.34.42.25,1.1-.17,1.43-3.62,2.86-7.58,5.39-11.71,7.5h-.34c-4.3,2.11-8.85,3.45-13.48,3.96-4.55.51-9.1.25-13.65-.67-.51,0-.84-.67-.76-1.18,0-.34.25-.59.51-.67h-.25v-.17h0Z"/>
        <path class="cls-1" d="M65.91,67.84h0v-.25h0v-.17h0v-.17h0v-.25c0-.17,0,0,0,0v-.17c0-.17,0,0,0,0h0v-.17h0v-.17h0v-.17h0v-.25h0v-.25h0v-.17h0v-.17h0v-.25h0s0-.08.17-.25h0s0-.08.17-.25h0l.17-.25h0l.17-.25h0s.17-.17.25-.17c2.19-1.94,4.55-3.62,7.25-4.97h.17c.51-.25,1.1,0,1.35.51s0,1.1-.42,1.35h0c-.34.17-.59.34-.93.51-2.11,1.18-4.04,2.53-5.81,4.21-.59.51-1.1,1.1-1.69,1.6-.51.59-1.01,1.18-1.52,1.77l-.17.17h-.17s0,.17-.17.17h-.59s-.25-.17-.34-.25h0v-1.1l2.11-.17h0Z"/>
        <path class="cls-1" d="M83.86,59.33s.17-.17.34-.25c.34-.17.76-.17,1.1.17.84.67,1.43,1.52,1.94,2.44.17.34.34.67.42,1.01.42,1.26.51,2.61.25,3.88,0,.51-.67.93-1.18.76-.51,0-.93-.67-.76-1.18.17-1.01.17-1.94-.17-2.86,0-.25-.17-.51-.34-.76-.34-.67-.84-1.35-1.43-1.85-.42-.34-.51-1.01,0-1.43h-.17v.08Z"/>
        <path class="cls-1" d="M72.91,84.36c.17-1.18.42-2.36.76-3.54.34-1.1.84-2.27,1.43-3.29.67-1.1,1.35-2.19,2.27-3.12,1.52-1.69,3.37-3.12,5.39-4.13s1.1,0,1.35.42,0,1.1-.42,1.35c-1.85.93-3.45,2.11-4.8,3.62-.76.84-1.43,1.77-1.94,2.78-.51.93-.93,1.94-1.26,2.95s-.59,2.11-.67,3.12c0,.59-.59.93-1.1.84s-.93-.59-.84-1.1h-.17v.08Z"/>
        <path class="cls-1" d="M114.95,86.21c.42.25.59.93.34,1.35-1.35,2.11-2.86,4.04-4.55,5.9-3.45,3.71-7.5,6.74-12.05,9.02-2.27,1.1-4.8,1.77-7.33,1.85-2.44,0-4.89-.34-7.16-1.26-2.02-.76-3.79-1.94-5.39-3.29-1.26-1.1-2.36-2.44-3.2-3.88-.34-.51-.59-1.01-.84-1.52-.42-.76-.67-1.6-1.01-2.36-.42-1.26-.67-2.61-.84-3.88,0-.42.17-.84.59-1.01h.34c.59,0,1.01.34,1.1.93,0,1.18.34,2.36.67,3.45.25.76.51,1.43.84,2.11s.51.93.76,1.35c.76,1.26,1.77,2.44,2.86,3.37,1.43,1.26,3.03,2.27,4.8,2.95,4.21,1.6,8.85,1.43,12.89-.59,4.38-2.19,8.17-5.06,11.46-8.59,1.6-1.77,3.03-3.62,4.3-5.56.25-.51.93-.59,1.35-.34h.08Z"/>
        <path class="cls-1" d="M118.41,75.68c.51-1.85.84-3.71,1.1-5.56s.34-3.79.34-5.65.25-.76.59-.93h.42c.59,0,1.01.42,1.01,1.01,0,2.02,0,3.96-.34,5.98-.25,1.94-.67,3.96-1.18,5.81-.51,1.94-1.26,3.88-2.02,5.73-.25.51-.84.76-1.35.51s-.76-.84-.51-1.35c.76-1.77,1.43-3.62,1.94-5.39h0v-.17Z"/>
        <path class="cls-1" d="M121.27,58.32c0,.59-.25,1.1-.84,1.18s-1.1-.25-1.18-.84c0-.67-.25-1.35-.42-2.02,0-.42.17-.93.51-1.1h.25c.51,0,1.1.25,1.18.76.17.67.25,1.43.42,2.11h0l.08-.08Z"/>
        <path class="cls-1" d="M90.18,60.18c2.7,5.48.51,12.22-5.06,15s-1.1,0-1.35-.42,0-1.1.42-1.35c4.55-2.27,6.4-7.75,4.13-12.3-.25-.51,0-1.1.42-1.35s1.1,0,1.35.42h.08Z"/>
        <path class="cls-1" d="M75.27,55.12c3.37-1.69,7.33-1.52,10.62.34.51.25.67.93.34,1.35-.25.51-.93.67-1.35.34-2.7-1.6-5.9-1.69-8.68-.34-.51.25-1.1,0-1.35-.42s0-1.1.42-1.35h0v.08Z"/>
        <path class="cls-1" d="M90.77,73.66c-.42-.34-.59-.93-.25-1.43.67-.93,1.18-1.94,1.52-3.03.34-1.01.59-2.02.67-3.12,0-1.1,0-2.11-.17-3.2s-.51-2.19-1.01-3.2v-.17c-.67-1.1-1.26-2.02-2.11-2.86h0c-1.1-1.26-2.44-2.19-3.88-2.86-3.45-1.6-7.41-1.52-10.87.17h0c-3.79,1.85-7.08,4.3-9.94,7.33-.42.42-1.01.42-1.43,0-.42-.34-.42-1.01,0-1.43,3.03-3.2,6.57-5.73,10.53-7.75h0c2.02-1.01,4.13-1.52,6.4-1.52s4.3.42,6.24,1.35c1.52.67,2.86,1.6,4.04,2.7h0l.51.51c.93,1.01,1.77,2.19,2.36,3.45v.25c.59,1.18,1.01,2.44,1.18,3.79.17,1.18.25,2.44.17,3.71,0,1.18-.34,2.44-.76,3.54-.42,1.26-1.01,2.44-1.77,3.45-.34.42-.93.59-1.43.25h0v.08Z"/>
        <path class="cls-1" d="M93.55,77.11c-1.52,1.69-3.37,3.12-5.39,4.13-1.6.76-2.78,2.27-3.12,4.04-.17,1.01-.17,1.94.17,2.86,0,.25.17.51.34.76.34.67.84,1.35,1.43,1.85,1.77,1.52,4.21,1.77,6.24.84h0c2.44-1.26,4.72-2.78,6.74-4.63,0,0,.17,0,.25-.17.42-.17.84,0,1.18.25.34.42.34,1.01,0,1.43-2.11,1.94-4.55,3.62-7.25,4.97h0c-2.78,1.35-6.07.93-8.43-1.1-.84-.67-1.43-1.52-1.94-2.44-.17-.34-.34-.67-.42-1.01-.42-1.26-.51-2.61-.25-3.88.25-1.18.67-2.27,1.43-3.2.76-1.01,1.69-1.77,2.78-2.27,1.85-.93,3.45-2.11,4.8-3.62,0,0,.17-.17.34-.25.34-.17.84-.17,1.1.17.42.34.42,1.01,0,1.43h0v-.17h0Z"/>
        <path class="cls-1" d="M97.26,70.71c-.34,1.18-.84,2.27-1.43,3.29-.25.51-.84.67-1.35.34-.51-.25-.67-.93-.42-1.35.51-.93.93-1.94,1.26-2.95s.59-2.11.67-3.12c0-.34.25-.67.59-.76h.59c.59,0,.93.59.84,1.1-.17,1.18-.42,2.36-.76,3.54h0v-.08Z"/>
        <path class="cls-1" d="M90.85,53.27c-.42-.34-.42-1.01,0-1.43,0,0,.17-.17.34-.25.34-.17.76-.17,1.1.17,1.26,1.1,2.36,2.44,3.2,3.88.34.51.59,1.01.84,1.52.42.76.67,1.6,1.01,2.36.42,1.26.67,2.61.84,3.88,0,.59-.34,1.01-.93,1.1s-1.01-.34-1.1-.93c0-1.18-.34-2.36-.67-3.45-.25-.76-.51-1.43-.84-2.11s-.51-.93-.76-1.35c-.76-1.26-1.77-2.44-2.86-3.37h-.17Z"/>
        <path class="cls-1" d="M86.72,48.46c.51.17.76.76.59,1.26s-.76.76-1.26.59c-4.21-1.6-8.85-1.43-12.89.59h0c-4.38,2.19-8.17,5.06-11.46,8.59-1.6,1.77-3.03,3.62-4.3,5.56-1.1,1.69-2.11,3.54-2.86,5.39-.25.51-.84.76-1.35.51s-.76-.84-.51-1.35c.84-1.94,1.85-3.88,3.03-5.65,1.35-2.11,2.86-4.04,4.55-5.9,3.45-3.71,7.5-6.74,12.05-9.02h0c2.27-1.1,4.8-1.77,7.33-1.85,2.44,0,4.89.34,7.16,1.26h-.08Z"/>
        <path class="cls-1" d="M97.34,52.42c.76,1.01,1.43,2.11,2.02,3.2.17.34.34.59.42.93.59,1.35,1.01,2.7,1.35,4.13.25,1.35.42,2.7.42,4.04s0,2.53-.25,3.79c-.17,1.18-.51,2.36-.93,3.54-.42,1.1-.84,2.19-1.43,3.29-.59,1.01-1.26,2.02-1.94,2.95-.76.93-1.6,1.85-2.53,2.7-.42.34-1.01.34-1.43,0-.34-.42-.34-1.01,0-1.43.84-.76,1.6-1.52,2.27-2.44.67-.84,1.26-1.77,1.77-2.7s.93-1.94,1.35-2.95c.34-1.01.67-2.11.84-3.2.17-1.18.25-2.27.25-3.45s-.17-2.44-.42-3.62c-.25-1.26-.67-2.53-1.18-3.79-.17-.25-.25-.59-.42-.84-.51-1.01-1.1-2.02-1.77-2.95-1.01-1.35-2.19-2.61-3.54-3.62-1.69-1.35-3.62-2.36-5.73-3.12-1.1-.42-2.27-.67-3.45-.84-.59,0-.93-.59-.84-1.1,0-.34.25-.59.59-.76.17,0,.42-.17.59,0,1.26.17,2.61.51,3.79.93,2.27.76,4.38,1.94,6.32,3.45,1.52,1.18,2.78,2.53,3.88,4.04h0v-.17h0Z"/>
        <path class="cls-1" d="M101.72,55.12c-.51.25-1.1,0-1.35-.42-.76-1.43-1.69-2.86-2.7-4.04-1.26-1.43-2.61-2.78-4.21-3.88-.67-.51-1.52-1.01-2.27-1.43-.51-.25-.67-.84-.42-1.35s.25-.34.42-.42c.25-.17.67-.17.93,0,.84.51,1.69,1.01,2.44,1.52,1.69,1.18,3.2,2.61,4.55,4.21,1.1,1.35,2.11,2.86,2.95,4.47.25.51,0,1.1-.42,1.35h.08Z"/>
        <path class="cls-1" d="M105.18,72.81c0-.25.25-.51.51-.59s.51-.17.76,0c.51.17.84.67.67,1.26-.42,1.26-.93,2.61-1.52,3.79-.59,1.18-1.26,2.36-1.94,3.54-.76,1.1-1.6,2.19-2.44,3.2-.93,1.01-1.94,2.02-3.03,2.86-1.69,1.35-3.45,2.61-5.48,3.54h0c-2.19,1.1-4.8.17-5.9-1.94,0,0,0-.17-.17-.25h0c-.42-1.01-.42-2.19,0-3.2s1.18-1.85,2.19-2.36,1.1,0,1.35.42,0,1.1-.42,1.35c-1.1.59-1.6,1.85-1.18,3.03h0v.17c.59,1.18,2.02,1.69,3.2,1.1h0c1.85-.93,3.54-2.02,5.06-3.29,1.01-.84,1.94-1.77,2.78-2.7s1.6-1.94,2.27-2.95,1.26-2.11,1.85-3.29c.51-1.18,1.01-2.36,1.35-3.54h0v-.17h.08Z"/>
        <path class="cls-1" d="M106.1,56.97c-.51.17-1.1,0-1.26-.59-.34-.93-.76-1.85-1.18-2.78-.25-.59-.59-1.1-.84-1.6-.93-1.6-2.02-3.03-3.2-4.38-.51-.59-1.1-1.1-1.69-1.69-.42-.34-.42-1.01,0-1.43,0,0,.17-.17.25-.25.34-.17.84-.17,1.1.17.59.59,1.26,1.18,1.77,1.77,1.35,1.43,2.53,3.03,3.45,4.72.34.59.67,1.18.93,1.77.51,1.01.93,2.02,1.26,3.03s0,1.1-.59,1.26h0Z"/>
        <path class="cls-1" d="M106.44,59.67h.25c.59,0,1.1.25,1.18.84.25,1.52.42,3.03.42,4.55s0,2.86-.34,4.38c0,.59-.59.93-1.1.84-.59,0-.93-.59-.84-1.1.17-1.35.25-2.7.25-4.04s-.17-2.86-.34-4.21c0-.42.17-.84.51-1.1h0s0-.17,0-.17Z"/>
        <path class="cls-1" d="M106.44,49.56c-.42.25-1.1.17-1.35-.34-.42-.59-.84-1.18-1.26-1.77-.34-.42-.25-1.1.17-1.43h.17c.42-.17.93,0,1.26.25.42.59.93,1.26,1.35,1.94.25.51.17,1.1-.34,1.35h0Z"/>
        <path class="cls-1" d="M110.91,58.32c.34,1.6.59,3.29.67,4.97,0,.59-.42,1.01-.93,1.01s-1.01-.42-1.01-.93c0-1.52-.34-3.12-.67-4.63-.34-1.6-.84-3.2-1.52-4.72-.17-.51,0-1.01.51-1.26h0c.51-.17,1.1,0,1.26.59.67,1.6,1.18,3.37,1.6,5.06h0l.08-.08Z"/>
        <path class="cls-1" d="M103.49,84.86c-.42-.34-.51-1.01-.17-1.43.84-1.1,1.69-2.36,2.44-3.54.67-1.18,1.35-2.53,1.85-3.79.51-1.35.93-2.7,1.26-4.04.34-1.43.59-2.86.67-4.3,0-.34.25-.67.59-.76h.51c.59,0,.93.51.93,1.1-.17,1.52-.42,3.03-.76,4.55-.34,1.43-.84,2.95-1.35,4.3-.59,1.43-1.18,2.78-1.94,4.04-.76,1.35-1.6,2.61-2.61,3.79-.34.42-1.01.51-1.43.17h0v-.08Z"/>
        <path class="cls-1" d="M113.94,56.22c.17.51-.17,1.1-.67,1.18-.51.17-1.1-.17-1.26-.67-.42-1.77-1.1-3.45-1.85-5.14-.17-.34-.34-.76-.51-1.1-.17-.25-.25-.51-.42-.84-.25-.51,0-1.1.42-1.35h0c.51-.25,1.1,0,1.35.42.17.25.34.59.42.84.17.34.34.76.51,1.18.76,1.77,1.43,3.54,1.94,5.39h0l.08.08Z"/>
        <path class="cls-1" d="M114.87,61.52c.17,1.69.25,3.45.17,5.22,0,.59-.51,1.01-1.01.93-.59,0-1.01-.51-.93-1.01,0-1.6,0-3.29-.17-4.89,0-.42.17-.84.59-1.01h.34c.59,0,1.01.34,1.1.93h0v-.17h-.08Z"/>
        <path class="cls-1" d="M116.89,54.19c.59,1.85,1.01,3.79,1.26,5.73.25,1.85.34,3.79.34,5.65s-.17,3.71-.42,5.48c0,.59-.59.93-1.18.84-.59,0-.93-.59-.84-1.18.25-1.69.42-3.45.42-5.22s0-3.54-.34-5.31c-.25-1.85-.67-3.71-1.18-5.48-.17-.67-.42-1.35-.67-1.94-.17-.51,0-1.01.51-1.26h0c.51-.17,1.1,0,1.26.59.25.67.51,1.35.67,2.02h.17v.08Z"/>
        <path class="cls-1" d="M116.81,76.35c-.51,1.77-1.18,3.45-2.02,5.14-.84,1.77-1.77,3.45-2.86,5.06-.34.42-.93.59-1.43.25-.42-.34-.59-.93-.25-1.43,1.01-1.52,1.94-3.12,2.7-4.8.76-1.6,1.35-3.2,1.85-4.89,0-.25.25-.51.51-.59s.51-.17.76,0c.51.17.84.76.67,1.26h.08Z"/>
        <path class="cls-1" d="M106.61,90.09c.34-.17.84-.17,1.1.17.42.34.42,1.01,0,1.43-3.03,3.2-6.57,5.73-10.53,7.75h0c-2.02,1.01-4.13,1.52-6.4,1.52s-4.3-.42-6.24-1.35c-.51-.25-.67-.84-.51-1.35,0-.25.25-.34.42-.51.25-.17.59-.17.84,0,3.45,1.6,7.41,1.52,10.87-.17h0c3.79-1.85,7.08-4.3,9.94-7.33,0,0,.17-.17.25-.17h.25,0Z"/>
        <path class="cls-1" d="M127.25,90.42c.25-.17.59-.17.93,0,.51.25.67.84.42,1.35-1.69,3.12-3.71,6.07-5.98,8.76-2.36,2.86-5.06,5.48-8,7.75-2.95,2.36-6.24,4.47-9.69,6.15h0s-.17,0-.25.17c-.51.25-1.1,0-1.35-.51,0-.25-.17-.51,0-.67h0c0-.25.25-.51.42-.59h.34c6.57-3.29,12.3-7.84,17.02-13.48,2.19-2.61,4.13-5.48,5.81-8.51,0-.17.25-.34.42-.42h-.08Z"/>
        <path class="cls-1" d="M131.04,80.65c0-.25.25-.51.51-.59s.51-.17.76,0c.51.17.84.67.67,1.26-.25.76-.51,1.6-.76,2.36-.17.51-.76.76-1.26.59s-.76-.76-.59-1.26c.25-.76.51-1.52.76-2.27h-.08v-.08Z"/>
        <path class="cls-1" d="M113.86,113.09c-.42.34-1.1.17-1.43-.25s-.17-1.1.25-1.43c4.21-2.95,7.92-6.4,11.21-10.36,2.36-2.86,4.38-5.98,6.15-9.18.42-.76.84-1.6,1.26-2.44s.25-.34.42-.51c.25-.17.59-.17.84,0,.51.25.67.84.51,1.35l-1.26,2.53c-1.77,3.37-3.96,6.57-6.32,9.52-3.37,4.13-7.25,7.75-11.54,10.79h-.08Z"/>
        <path class="cls-1" d="M114.45,71.8c-.34,1.6-.76,3.2-1.26,4.8-.59,1.6-1.18,3.12-1.94,4.63-.25.51-.84.67-1.35.42s-.67-.84-.42-1.35c.67-1.43,1.35-2.86,1.85-4.38s.93-3.03,1.26-4.55c0-.34.25-.59.51-.67.17,0,.42-.17.67,0,.51,0,.93.67.76,1.18h0l-.08-.08Z"/>
        <path class="cls-1" d="M108.46,85.62c-1.1,1.52-2.36,3.03-3.79,4.38-.42.42-1.01.34-1.43,0-.42-.42-.42-1.01,0-1.43,1.26-1.26,2.44-2.7,3.54-4.13,0-.17.25-.25.34-.34.34-.17.67-.17,1.01,0,.42.34.59.93.25,1.43h0l.08.08Z"/>
        <path class="cls-1" d="M128.77,83.18c-.93,2.61-2.11,5.14-3.54,7.58-.25.51-.84.67-1.35.34-.51-.25-.67-.93-.42-1.35,1.35-2.36,2.44-4.8,3.37-7.25.84-2.27,1.52-4.72,2.02-7.08,0-.34.25-.59.51-.67.17,0,.42-.17.67,0,.51,0,.84.67.76,1.18-.51,2.53-1.26,4.97-2.11,7.41h0v-.17h.08Z"/>
        <path class="cls-1" d="M83.1,113.43c-.51-.17-.84-.67-.67-1.26,0-.25.25-.51.51-.59.17,0,.42-.17.67,0,6.07,1.69,12.55,1.18,18.2-1.52,0,0,.17,0,.25-.17h.34c5.98-3.03,11.29-7.16,15.59-12.22.34-.42,1.01-.51,1.43,0s.51,1.01,0,1.43c-4.47,5.31-9.94,9.61-16.18,12.72h0s-.17,0-.25.17c-6.07,2.95-13.06,3.62-19.55,1.85h-.34v-.34h0v-.08Z"/>
        <path class="cls-1" d="M125.06,61.1c0,.67,0,1.43.17,2.11,0,2.11,0,4.3-.17,6.4,0,.59-.59.93-1.1.93s-.93-.59-.93-1.1c.17-2.02.25-4.13.17-6.15,0-.67,0-1.35-.17-2.02,0-.42.17-.84.59-1.01h.34c.59,0,1.01.34,1.1.93h0v-.08Z"/>
        <path class="cls-1" d="M120.01,81.58c.84-1.94,1.43-3.96,1.94-5.98,0-.25.25-.51.51-.67.17,0,.42-.17.67,0,.51.17.84.67.76,1.18-.51,2.11-1.26,4.21-2.11,6.24-.93,2.19-1.94,4.3-3.2,6.32-1.43,2.36-3.03,4.55-4.89,6.57-.34.42-1.01.42-1.43,0-.42-.34-.42-1.01,0-1.43,1.77-1.94,3.29-4.04,4.63-6.32,1.18-1.94,2.19-3.96,3.03-6.07h0v.17h.08Z"/>
        <path class="cls-1" d="M77.37,101.71s.17-.17.34-.25c.34-.17.76-.17,1.1,0,1.69,1.35,3.62,2.36,5.73,3.12,4.89,1.69,10.11,1.35,14.75-.93h.17c.51-.25,1.1,0,1.35.42.25.51,0,1.1-.42,1.35,0,0-.17,0-.25.17-2.61,1.26-5.31,1.94-8.17,2.11-2.78.17-5.48-.25-8.09-1.1-2.27-.76-4.38-1.94-6.32-3.45-.42-.34-.51-1.01-.17-1.43h0Z"/>
        <path class="cls-1" d="M69.7,82.93c.17-.76.25-1.52.51-2.27.17-.42.25-.93.42-1.35,0-.25.25-.42.51-.59s.51-.17.76,0c.51.17.84.76.59,1.26-.34,1.01-.67,2.11-.84,3.2v.17c-.17,1.1-.25,2.19-.25,3.2s.17,2.44.42,3.62c.25,1.26.67,2.53,1.18,3.79.17.25.25.59.42.84.51,1.01,1.1,2.02,1.77,2.95.34.42.25,1.1-.17,1.43s-1.1.25-1.43-.17c-.76-1.01-1.43-2.11-2.02-3.2-.17-.34-.34-.59-.42-.93-.59-1.35-1.01-2.7-1.35-4.13-.25-1.35-.42-2.7-.42-4.04s0-2.53.25-3.79h.08Z"/>
        <path class="cls-1" d="M84.28,63.46h0v.25h0v.17h0v.17h0v.17h0v.17h0v.17h0v.17h0v.17h0v.17h0c0,.25,0,.51-.17.67-.17.59-.51,1.01-.93,1.52-.34.34-.76.67-1.26.93-1.52.76-2.95,1.77-4.3,2.86-.84.76-1.6,1.52-2.27,2.44-.34.42-1.01.51-1.43.17h0s-.17-.17-.17-.25c-.17-.34-.17-.67,0-1.01h0c.76-.93,1.6-1.85,2.53-2.7,1.43-1.26,3.03-2.36,4.72-3.2,1.1-.59,1.6-1.85,1.18-3.03h0v-.17c-.59-1.18-2.02-1.69-3.2-1.1-1.85.93-3.54,2.02-5.06,3.29-.42.34-1.01.25-1.43-.17-.34-.42-.25-1.01.17-1.43,1.69-1.35,3.54-2.61,5.48-3.54,2.19-1.1,4.8-.17,5.9,1.94,0,0,0,.17.17.25h0v.93h.08Z"/>
        <path class="cls-1" d="M125.32,82.67c-.17.51-.76.76-1.26.59s-.76-.76-.59-1.26c.84-2.11,1.52-4.3,2.02-6.57.51-2.19.84-4.38,1.01-6.57,0-.34.25-.67.59-.84h.51c.59,0,.93.51.93,1.1-.17,2.27-.59,4.55-1.01,6.82-.51,2.36-1.26,4.63-2.11,6.82h0l-.08-.08Z"/>
        <path class="cls-1" d="M121.94,89.67c-1.52,2.61-3.29,5.06-5.22,7.33-4.13,4.8-9.1,8.59-14.83,11.46l-.25.17c-5.65,2.78-12.05,3.29-18.12,1.43-2.53-.76-4.97-1.94-7.16-3.54-1.69-1.18-3.2-2.61-4.55-4.21-1.1-1.35-2.11-2.86-2.95-4.47,0-.17-.17-.25-.25-.42-.25-.51,0-1.1.42-1.35s1.1,0,1.35.42c0,.17.17.25.17.42.76,1.43,1.69,2.86,2.7,4.04,1.26,1.43,2.61,2.78,4.21,3.88,2.02,1.43,4.21,2.53,6.57,3.2,5.56,1.69,11.46,1.26,16.68-1.26l.25-.17c5.48-2.7,10.28-6.4,14.24-11.04,1.85-2.19,3.62-4.55,5.06-6.99.25-.51.93-.67,1.35-.34.51.25.67.93.34,1.35h0v.08Z"/>
        <path class="cls-1" d="M68.95,92.78c.17.51-.17,1.1-.67,1.26s-1.1-.17-1.26-.67c-.42-1.43-.67-2.86-.84-4.38-.17-1.35-.17-2.78,0-4.13,0-.34.25-.67.59-.84h.51c.59,0,1.01.51.93,1.1v3.79c.17,1.35.42,2.7.76,3.96h0v-.08Z"/>
        <path class="cls-1" d="M67.85,77.28c0-.25.25-.42.51-.51s.51-.17.84,0c.51.17.76.76.59,1.26-.42,1.1-.76,2.19-1.01,3.37-.17.51-.67.84-1.18.76-.51-.17-.84-.67-.76-1.18.25-1.26.67-2.44,1.1-3.62h0l-.08-.08Z"/>
        <path class="cls-1" d="M76.7,66.07c1.01-.67,2.02-1.26,3.03-1.77s1.1,0,1.35.42,0,1.1-.42,1.35c-1.01.51-1.94,1.01-2.78,1.6-.93.59-1.77,1.26-2.53,2.02-.84.76-1.52,1.52-2.27,2.44-.67.84-1.35,1.77-1.85,2.78s-.93.67-1.35.34c-.51-.25-.67-.93-.34-1.35.59-1.01,1.35-2.02,2.11-3.03.76-.93,1.6-1.85,2.44-2.61s1.77-1.52,2.78-2.19h-.17Z"/>
      </g>
    </g>
  </g>
</svg>