<?xml version="1.0" encoding="UTF-8"?>
<svg id="Layer_2" data-name="Layer 2" xmlns="http://www.w3.org/2000/svg" viewBox="0 0 181 177.7">
  <defs>
    <style>
      .cls-1 {
        fill: #fff;
      }

      .cls-2 {
        fill: #24ff00;
      }
    </style>
  </defs>
  <g id="Layer_1-2" data-name="Layer 1">
    <g>
      <path class="cls-1" d="M181,87.2c0,50-40.5,90.5-90.5,90.5S0,137.2,0,87.2,28.1,10.6,66.3,0v26.2c-24.3,9.6-41.4,33.3-41.4,61s29.4,65.6,65.6,65.6,65.6-29.4,65.6-65.6-17.2-51.4-41.4-61V0c38.2,10.6,66.3,45.6,66.3,87.2Z"/>
      <g>
        <path class="cls-2" d="M95.66,85.6c-1.1.8-2.4,1.5-3.6,2.1s-1.3,0-1.6-.5,0-1.3.5-1.6c1.2-.6,2.3-1.2,3.3-1.9,1.1-.7,2.1-1.5,3-2.4,0,0,.2,0,.3-.2.5-.2,1,0,1.4.3s.4,1.2,0,1.7c-1,.9-2.1,1.8-3.3,2.6h0v-.1Z"/>
        <path class="cls-2" d="M96.36,96.5c.6-.3,1.3,0,1.6.5s0,1.3-.5,1.6c-4,2-8.7,1.8-12.6-.4-1.7-1-3.1-2.3-4.2-3.9-.4-.5-.2-1.3.3-1.7h.2c.5-.3,1.2,0,1.5.4.9,1.3,2.1,2.4,3.5,3.2,3.2,1.9,7,2,10.3.4h-.1v-.1Z"/>
        <path class="cls-2" d="M86.66,77c-2.2,1.1-3.9,2.8-5,5.1-.5,1.2-.9,2.4-1,3.7,0,1.2,0,2.4.3,3.6.2.6-.2,1.3-.9,1.4-.6.2-1.3-.2-1.4-.9-.4-1.4-.5-2.9-.3-4.4,0-1.6.6-3.1,1.2-4.5.6-1.3,1.5-2.5,2.5-3.6s2.3-2,3.6-2.6c.6-.3,1.3,0,1.6.5s0,1.3-.5,1.6h0l-.1.1Z"/>
        <path class="cls-2" d="M101.86,79.9c-.4.5-1.2.6-1.7.2s-.6-1.2-.2-1.7c.8-1,1.6-2.1,2.2-3.3s.3-.4.5-.5c.3-.2.8-.2,1.1,0,.6.3.8,1.1.4,1.6-.7,1.2-1.5,2.4-2.5,3.6h.2v.1Z"/>
        <path class="cls-2" d="M80.56,98.5c-.5.4-1.2.4-1.7,0-1.1-1.2-2.1-2.6-2.8-4.1v-.3c-.7-1.4-1.2-2.9-1.4-4.5-.2-1.4-.3-2.9-.2-4.4,0-1.4.4-2.9.9-4.2.5-1.5,1.2-2.9,2.1-4.1,0-.2.3-.3.5-.4.4-.2.8-.2,1.2,0,.5.4.7,1.1.3,1.7-.8,1.1-1.4,2.3-1.8,3.6-.4,1.2-.7,2.4-.8,3.7,0,1.3,0,2.5.2,3.8s.6,2.6,1.2,3.8v.2c.8,1.3,1.6,2.5,2.6,3.5s.4,1.2,0,1.7h-.3,0Z"/>
        <path class="cls-2" d="M58.66,92.4c0-.5.2-1,.6-1.3h.3c.7,0,1.3.3,1.4,1,.3,1.8.8,3.5,1.4,5.2.4,1.1.9,2.2,1.4,3.3.3.7.7,1.3,1,1.9,1.1,1.9,2.4,3.6,3.8,5.2.4.5.4,1.2,0,1.7-.5.4-1.2.4-1.7,0-1.6-1.7-3-3.6-4.1-5.6-.4-.7-.8-1.4-1.1-2.1-.6-1.2-1.1-2.4-1.5-3.6-.7-1.8-1.1-3.7-1.5-5.6h0v-.1Z"/>
        <path class="cls-2" d="M59.66,77c0-.3.3-.6.6-.7s.6-.2.9,0c.6.2,1,.9.8,1.5-.5,1.5-.8,3-1,4.5-.2,1.6-.3,3.2-.3,4.8s-.5,1.2-1.2,1.2-1.2-.5-1.2-1.2c0-1.7,0-3.4.4-5.2.2-1.6.6-3.3,1.1-4.9h-.1Z"/>
        <path class="cls-2" d="M66.66,64.5s.2-.2.4-.3c.4-.2.9-.2,1.3.2.5.4.5,1.2,0,1.7-1,1.1-1.9,2.3-2.7,3.5s-1.5,2.5-2.2,3.9-1,.8-1.6.6c-.6-.3-.8-1-.6-1.6.7-1.4,1.5-2.8,2.3-4.2.9-1.3,1.9-2.6,2.9-3.8h.2,0Z"/>
        <path class="cls-2" d="M82.76,120.6c5.3,1.4,10.8,1.5,16.1.4.6,0,1.3.3,1.4.9,0,.6-.3,1.3-.9,1.4-2.8.6-5.8.9-8.7.8-2.9,0-5.7-.5-8.5-1.2-3.7-1-7.2-2.5-10.4-4.5-.6-.3-.7-1.1-.4-1.6,0-.2.3-.3.5-.4.4-.2.8-.2,1.2,0,3,1.9,6.3,3.3,9.8,4.2h-.1Z"/>
        <path class="cls-2" d="M66.46,111.2c.5.5.5,1.2,0,1.7s-1.2.4-1.7,0c-1.8-1.8-3.3-3.8-4.7-5.9-.7-1.2-1.4-2.3-2-3.6-.4-.8-.8-1.6-1.1-2.5-.2-.6,0-1.2.6-1.5h0c.6-.2,1.3,0,1.5.7.3.8.7,1.6,1,2.3.6,1.2,1.2,2.3,1.9,3.4,1.3,2,2.8,3.9,4.4,5.6h0v-.2h.1Z"/>
        <path class="cls-2" d="M54.96,82.4h.6c.7,0,1.1.6,1.1,1.3-.2,1.8-.2,3.5,0,5.3,0,1.8.4,3.7.8,5.5,0,.6-.3,1.3-.9,1.4-.6,0-1.3-.3-1.4-.9-.4-1.9-.7-3.9-.8-5.9v-5.7c0-1.9.3-.8.7-.9h0l-.1-.1Z"/>
        <path class="cls-2" d="M59.06,73.7c-.6,1.6-1.1,3.2-1.5,4.8-.2.6-.8,1-1.4.9-.6-.2-1-.8-.9-1.4.4-1.7,1-3.5,1.6-5.1.7-1.7,1.4-3.3,2.3-4.8,0-.2.3-.4.5-.5.3-.2.8-.2,1.1,0,.6.3.8,1.1.4,1.6-.8,1.4-1.6,3-2.2,4.5,0,0,.1,0,.1,0Z"/>
        <path class="cls-2" d="M104.06,71.5c.5-1.3.9-2.6,1.2-4s.5-2.8.6-4.3v-4.6c-.2-1.6-.5-3.2-.9-4.7-.2-.6,0-1.2.6-1.4h.2c.6-.2,1.3.2,1.5.8.5,1.7.8,3.4,1,5.2.2,1.6.2,3.3,0,4.9,0,1.6-.3,3.1-.7,4.7-.3,1.5-.8,2.9-1.3,4.3-.2.6-.9.9-1.5.7s-.9-.9-.7-1.5h0v-.1Z"/>
        <path class="cls-2" d="M54.86,67.7c.9-1.8,2-3.6,3.2-5.2,1.3-1.8,2.8-3.6,4.5-5.2,0,0,.2-.2.3-.2.5-.2,1,0,1.4.2.5.5.5,1.2,0,1.7-1.5,1.5-3,3.2-4.2,4.9-1.1,1.6-2.2,3.2-3,4.9s-1.6,3.4-2.2,5.2-.9.9-1.5.7-1-.9-.7-1.5c.7-1.9,1.4-3.7,2.3-5.5h-.1Z"/>
        <path class="cls-2" d="M50.86,83.8h.6c.7,0,1.2.6,1.1,1.2,0,1.9,0,3.9.2,5.8.2,2,.6,4,1.1,6,.5,2.1,1.3,4.1,2.2,6.1.2.4.4.9.6,1.3.8,1.7,1.8,3.3,2.8,4.8,1.5,2.1,3.1,4.1,5,5.9,2.2,2.1,4.6,3.9,7.2,5.5,3.3,2,6.9,3.4,10.7,4.4,8.8,2.2,18.1,1.2,26.3-2.8h.5c.6-.3,1.3,0,1.6.5s0,1.3-.5,1.6h0s-.2,0-.3.2h0c-4.4,2.2-9.1,3.5-13.9,4-4.7.5-9.4,0-14-1-4-1-7.8-2.5-11.4-4.6-2.8-1.6-5.3-3.6-7.6-5.8-2-1.9-3.8-4-5.3-6.3-1.1-1.6-2.1-3.3-3-5.1-.2-.4-.4-.9-.6-1.4-.9-2.1-1.7-4.2-2.3-6.4-.5-2.1-.9-4.2-1.2-6.3-.2-2-.3-4.1-.2-6.2,0-.4.3-.8.7-1h0l-.2-.2v-.2h-.1Z"/>
        <path class="cls-2" d="M68.66,124.5c0-.2.3-.4.5-.5.3-.2.8-.2,1.1,0,3.7,2.1,7.6,3.6,11.7,4.6,9.6,2.2,19.7,1.1,28.5-3.2h.4c9.2-4.6,17-10.9,23.4-18.8.9-1.1,1.7-2.2,2.5-3.3,0-.2.3-.3.4-.4.4-.2.8-.2,1.2,0,.5.4.7,1.1.3,1.7-.8,1.2-1.7,2.3-2.6,3.4-3.2,4-6.9,7.7-10.9,10.9-4.1,3.3-8.6,6.2-13.3,8.6h-.3c-4.7,2.3-9.8,3.8-15,4.3-5,.5-10.1.2-15.1-.9-4.3-1-8.5-2.6-12.3-4.8-.6-.3-.8-1.1-.4-1.6h0v.2-.2h-.1Z"/>
        <path class="cls-2" d="M55.26,111.7c.5-.2,1.1,0,1.5.4,1.6,2.3,3.5,4.4,5.6,6.3.5.4.5,1.2,0,1.7-.4.5-1.2.5-1.7,0-2.2-2-4.2-4.2-5.9-6.6-.4-.5-.3-1.3.3-1.7h.2v-.1Z"/>
        <path class="cls-2" d="M50.86,106.9v-.3c-1.1-2.2-2-4.5-2.7-6.9-.7-2.2-1.2-4.5-1.5-6.8-.3-2.2-.4-4.5-.4-6.7s.3-.9.7-1.1h.5c.7,0,1.2.6,1.2,1.2,0,2.1,0,4.2.4,6.3.3,2.2.8,4.3,1.4,6.5.7,2.2,1.5,4.4,2.5,6.5v.3c.3.6,0,1.3-.5,1.6s-1.3,0-1.6-.5h0v-.1Z"/>
        <path class="cls-2" d="M50.56,67.3c1-2.1,2.1-4.1,3.4-6,0-.2.3-.3.5-.4.4-.2.8-.2,1.2,0,.5.4.7,1.1.3,1.7-1.2,1.8-2.3,3.7-3.2,5.7-.9,1.9-1.6,3.8-2.2,5.8-.6,1.9-1.1,4-1.4,6,0,.7-.7,1.1-1.4,1-.7,0-1.1-.7-1-1.4.3-2.1.8-4.2,1.5-6.3.6-2.1,1.4-4.1,2.4-6.1h-.1Z"/>
        <path class="cls-2" d="M44.86,80.8c-.3,2.2-.4,4.5-.4,6.7s.2,4.6.6,6.9c0,.7-.3,1.3-1,1.4s-1.3-.3-1.4-1c-.4-2.4-.6-4.8-.7-7.2,0-2.4,0-4.7.4-7.1.3-2.3.8-4.7,1.4-6.9,0-.3.3-.6.6-.8.2,0,.5-.2.8,0,.6.2,1,.8.8,1.5-.6,2.2-1,4.4-1.3,6.6h.2v-.1Z"/>
        <path class="cls-2" d="M46.86,101.4c.7,2.1,1.6,4.2,2.6,6.2s.2.5.4.7c1.2,2.4,2.7,4.7,4.3,6.9,1.8,2.4,3.9,4.6,6.2,6.6,2.6,2.3,5.5,4.4,8.6,6.1.6.3.8,1,.5,1.6s-1,.8-1.6.5c-3.2-1.8-6.3-3.9-9.1-6.4-2.4-2.1-4.5-4.4-6.5-7-1.7-2.2-3.2-4.7-4.6-7.2,0-.2-.3-.5-.4-.8-1-2.1-2-4.3-2.7-6.6-.2-.6,0-1.2.6-1.4h.2c.6-.2,1.3,0,1.5.8h0Z"/>
        <path class="cls-2" d="M80.76,132.8c.2,0,.5-.2.8,0,10.5,2.3,21,1,30.7-3.7h.6c4.8-2.4,9.3-5.3,13.5-8.7h.2c.5-.2,1.1,0,1.5.3.4.5.3,1.3-.2,1.7-4.3,3.4-9,6.4-13.9,8.9h-.4c-5.1,2.5-10.5,4.1-16,4.7-5.4.6-10.8.3-16.2-.8-.6,0-1-.8-.9-1.4,0-.4.3-.7.6-.8h-.3v-.2h0Z"/>
        <path class="cls-2" d="M62.06,64.7h0v-.3h0v-.2h0v-.2h0v-.3c0-.2,0,0,0,0v-.2c0-.2,0,0,0,0h0v-.2h0v-.2h0v-.2h0v-.3h0v-.3h0v-.2h0v-.2h0v-.3h0s0-.1.2-.3h0s0-.1.2-.3h0l.2-.3h0l.2-.3h0s.2-.2.3-.2c2.6-2.3,5.4-4.3,8.6-5.9h.2c.6-.3,1.3,0,1.6.6s0,1.3-.5,1.6h0c-.4.2-.7.4-1.1.6-2.5,1.4-4.8,3-6.9,5-.7.6-1.3,1.3-2,1.9-.6.7-1.2,1.4-1.8,2.1l-.2.2h-.2s0,.2-.2.2h-.7s-.3-.2-.4-.3h0v-1.3l2.5-.2h0Z"/>
        <path class="cls-2" d="M83.36,54.6s.2-.2.4-.3c.4-.2.9-.2,1.3.2,1,.8,1.7,1.8,2.3,2.9.2.4.4.8.5,1.2.5,1.5.6,3.1.3,4.6,0,.6-.8,1.1-1.4.9-.6,0-1.1-.8-.9-1.4.2-1.2.2-2.3-.2-3.4,0-.3-.2-.6-.4-.9-.4-.8-1-1.6-1.7-2.2-.5-.4-.6-1.2,0-1.7h-.2v.1Z"/>
        <path class="cls-2" d="M70.36,84.3c.2-1.4.5-2.8.9-4.2.4-1.3,1-2.7,1.7-3.9.8-1.3,1.6-2.6,2.7-3.7,1.8-2,4-3.7,6.4-4.9s1.3,0,1.6.5,0,1.3-.5,1.6c-2.2,1.1-4.1,2.5-5.7,4.3-.9,1-1.7,2.1-2.3,3.3-.6,1.1-1.1,2.3-1.5,3.5s-.7,2.5-.8,3.7c0,.7-.7,1.1-1.3,1s-1.1-.7-1-1.3h-.2v.1Z"/>
        <path class="cls-2" d="M120.26,86.5c.5.3.7,1.1.4,1.6-1.6,2.5-3.4,4.8-5.4,7-4.1,4.4-8.9,8-14.3,10.7-2.7,1.3-5.7,2.1-8.7,2.2-2.9,0-5.8-.4-8.5-1.5-2.4-.9-4.5-2.3-6.4-3.9-1.5-1.3-2.8-2.9-3.8-4.6-.4-.6-.7-1.2-1-1.8-.5-.9-.8-1.9-1.2-2.8-.5-1.5-.8-3.1-1-4.6,0-.5.2-1,.7-1.2h.4c.7,0,1.2.4,1.3,1.1,0,1.4.4,2.8.8,4.1.3.9.6,1.7,1,2.5s.6,1.1.9,1.6c.9,1.5,2.1,2.9,3.4,4,1.7,1.5,3.6,2.7,5.7,3.5,5,1.9,10.5,1.7,15.3-.7,5.2-2.6,9.7-6,13.6-10.2,1.9-2.1,3.6-4.3,5.1-6.6.3-.6,1.1-.7,1.6-.4h.1Z"/>
        <path class="cls-2" d="M124.36,74c.6-2.2,1-4.4,1.3-6.6s.4-4.5.4-6.7.3-.9.7-1.1h.5c.7,0,1.2.5,1.2,1.2,0,2.4,0,4.7-.4,7.1-.3,2.3-.8,4.7-1.4,6.9-.6,2.3-1.5,4.6-2.4,6.8-.3.6-1,.9-1.6.6s-.9-1-.6-1.6c.9-2.1,1.7-4.3,2.3-6.4h0v-.2Z"/>
        <path class="cls-2" d="M127.76,53.4c0,.7-.3,1.3-1,1.4s-1.3-.3-1.4-1c0-.8-.3-1.6-.5-2.4,0-.5.2-1.1.6-1.3h.3c.6,0,1.3.3,1.4.9.2.8.3,1.7.5,2.5h0l.1-.1Z"/>
        <path class="cls-2" d="M90.86,55.6c3.2,6.5.6,14.5-6,17.8s-1.3,0-1.6-.5,0-1.3.5-1.6c5.4-2.7,7.6-9.2,4.9-14.6-.3-.6,0-1.3.5-1.6s1.3,0,1.6.5h.1Z"/>
        <path class="cls-2" d="M73.16,49.6c4-2,8.7-1.8,12.6.4.6.3.8,1.1.4,1.6-.3.6-1.1.8-1.6.4-3.2-1.9-7-2-10.3-.4-.6.3-1.3,0-1.6-.5s0-1.3.5-1.6h0v.1Z"/>
        <path class="cls-2" d="M91.56,71.6c-.5-.4-.7-1.1-.3-1.7.8-1.1,1.4-2.3,1.8-3.6.4-1.2.7-2.4.8-3.7,0-1.3,0-2.5-.2-3.8s-.6-2.6-1.2-3.8v-.2c-.8-1.3-1.5-2.4-2.5-3.4h0c-1.3-1.5-2.9-2.6-4.6-3.4-4.1-1.9-8.8-1.8-12.9.2h0c-4.5,2.2-8.4,5.1-11.8,8.7-.5.5-1.2.5-1.7,0-.5-.4-.5-1.2,0-1.7,3.6-3.8,7.8-6.8,12.5-9.2h0c2.4-1.2,4.9-1.8,7.6-1.8s5.1.5,7.4,1.6c1.8.8,3.4,1.9,4.8,3.2h0l.6.6c1.1,1.2,2.1,2.6,2.8,4.1v.3c.7,1.4,1.2,2.9,1.4,4.5.2,1.4.3,2.9.2,4.4,0,1.4-.4,2.9-.9,4.2-.5,1.5-1.2,2.9-2.1,4.1-.4.5-1.1.7-1.7.3h0v.1Z"/>
        <path class="cls-2" d="M94.86,75.7c-1.8,2-4,3.7-6.4,4.9-1.9.9-3.3,2.7-3.7,4.8-.2,1.2-.2,2.3.2,3.4,0,.3.2.6.4.9.4.8,1,1.6,1.7,2.2,2.1,1.8,5,2.1,7.4,1h0c2.9-1.5,5.6-3.3,8-5.5,0,0,.2,0,.3-.2.5-.2,1,0,1.4.3.4.5.4,1.2,0,1.7-2.5,2.3-5.4,4.3-8.6,5.9h0c-3.3,1.6-7.2,1.1-10-1.3-1-.8-1.7-1.8-2.3-2.9-.2-.4-.4-.8-.5-1.2-.5-1.5-.6-3.1-.3-4.6.3-1.4.8-2.7,1.7-3.8.9-1.2,2-2.1,3.3-2.7,2.2-1.1,4.1-2.5,5.7-4.3,0,0,.2-.2.4-.3.4-.2,1-.2,1.3.2.5.4.5,1.2,0,1.7h0v-.2h0Z"/>
        <path class="cls-2" d="M99.26,68.1c-.4,1.4-1,2.7-1.7,3.9-.3.6-1,.8-1.6.4-.6-.3-.8-1.1-.5-1.6.6-1.1,1.1-2.3,1.5-3.5s.7-2.5.8-3.7c0-.4.3-.8.7-.9h.7c.7,0,1.1.7,1,1.3-.2,1.4-.5,2.8-.9,4.2h0v-.1Z"/>
        <path class="cls-2" d="M91.66,47.4c-.5-.4-.5-1.2,0-1.7,0,0,.2-.2.4-.3.4-.2.9-.2,1.3.2,1.5,1.3,2.8,2.9,3.8,4.6.4.6.7,1.2,1,1.8.5.9.8,1.9,1.2,2.8.5,1.5.8,3.1,1,4.6,0,.7-.4,1.2-1.1,1.3s-1.2-.4-1.3-1.1c0-1.4-.4-2.8-.8-4.1-.3-.9-.6-1.7-1-2.5s-.6-1.1-.9-1.6c-.9-1.5-2.1-2.9-3.4-4h-.2Z"/>
        <path class="cls-2" d="M86.76,41.7c.6.2.9.9.7,1.5s-.9.9-1.5.7c-5-1.9-10.5-1.7-15.3.7h0c-5.2,2.6-9.7,6-13.6,10.2-1.9,2.1-3.6,4.3-5.1,6.6-1.3,2-2.5,4.2-3.4,6.4-.3.6-1,.9-1.6.6s-.9-1-.6-1.6c1-2.3,2.2-4.6,3.6-6.7,1.6-2.5,3.4-4.8,5.4-7,4.1-4.4,8.9-8,14.3-10.7h0c2.7-1.3,5.7-2.1,8.7-2.2,2.9,0,5.8.4,8.5,1.5h-.1Z"/>
        <path class="cls-2" d="M99.36,46.4c.9,1.2,1.7,2.5,2.4,3.8.2.4.4.7.5,1.1.7,1.6,1.2,3.2,1.6,4.9.3,1.6.5,3.2.5,4.8s0,3-.3,4.5c-.2,1.4-.6,2.8-1.1,4.2-.5,1.3-1,2.6-1.7,3.9-.7,1.2-1.5,2.4-2.3,3.5-.9,1.1-1.9,2.2-3,3.2-.5.4-1.2.4-1.7,0-.4-.5-.4-1.2,0-1.7,1-.9,1.9-1.8,2.7-2.9.8-1,1.5-2.1,2.1-3.2s1.1-2.3,1.6-3.5c.4-1.2.8-2.5,1-3.8.2-1.4.3-2.7.3-4.1s-.2-2.9-.5-4.3c-.3-1.5-.8-3-1.4-4.5-.2-.3-.3-.7-.5-1-.6-1.2-1.3-2.4-2.1-3.5-1.2-1.6-2.6-3.1-4.2-4.3-2-1.6-4.3-2.8-6.8-3.7-1.3-.5-2.7-.8-4.1-1-.7,0-1.1-.7-1-1.3,0-.4.3-.7.7-.9.2,0,.5-.2.7,0,1.5.2,3.1.6,4.5,1.1,2.7.9,5.2,2.3,7.5,4.1,1.8,1.4,3.3,3,4.6,4.8h0v-.2h0Z"/>
        <path class="cls-2" d="M104.56,49.6c-.6.3-1.3,0-1.6-.5-.9-1.7-2-3.4-3.2-4.8-1.5-1.7-3.1-3.3-5-4.6-.8-.6-1.8-1.2-2.7-1.7-.6-.3-.8-1-.5-1.6s.3-.4.5-.5c.3-.2.8-.2,1.1,0,1,.6,2,1.2,2.9,1.8,2,1.4,3.8,3.1,5.4,5,1.3,1.6,2.5,3.4,3.5,5.3.3.6,0,1.3-.5,1.6h.1Z"/>
        <path class="cls-2" d="M108.66,70.6c0-.3.3-.6.6-.7s.6-.2.9,0c.6.2,1,.8.8,1.5-.5,1.5-1.1,3.1-1.8,4.5-.7,1.4-1.5,2.8-2.3,4.2-.9,1.3-1.9,2.6-2.9,3.8-1.1,1.2-2.3,2.4-3.6,3.4-2,1.6-4.1,3.1-6.5,4.2h0c-2.6,1.3-5.7.2-7-2.3,0,0,0-.2-.2-.3h0c-.5-1.2-.5-2.6,0-3.8s1.4-2.2,2.6-2.8,1.3,0,1.6.5,0,1.3-.5,1.6c-1.3.7-1.9,2.2-1.4,3.6h0v.2c.7,1.4,2.4,2,3.8,1.3h0c2.2-1.1,4.2-2.4,6-3.9,1.2-1,2.3-2.1,3.3-3.2s1.9-2.3,2.7-3.5,1.5-2.5,2.2-3.9c.6-1.4,1.2-2.8,1.6-4.2h0v-.2h.1Z"/>
        <path class="cls-2" d="M109.76,51.8c-.6.2-1.3,0-1.5-.7-.4-1.1-.9-2.2-1.4-3.3-.3-.7-.7-1.3-1-1.9-1.1-1.9-2.4-3.6-3.8-5.2-.6-.7-1.3-1.3-2-2-.5-.4-.5-1.2,0-1.7,0,0,.2-.2.3-.3.4-.2,1-.2,1.3.2.7.7,1.5,1.4,2.1,2.1,1.6,1.7,3,3.6,4.1,5.6.4.7.8,1.4,1.1,2.1.6,1.2,1.1,2.4,1.5,3.6s0,1.3-.7,1.5h0Z"/>
        <path class="cls-2" d="M110.16,55h.3c.7,0,1.3.3,1.4,1,.3,1.8.5,3.6.5,5.4s0,3.4-.4,5.2c0,.7-.7,1.1-1.3,1-.7,0-1.1-.7-1-1.3.2-1.6.3-3.2.3-4.8s-.2-3.4-.4-5c0-.5.2-1,.6-1.3h0s0-.2,0-.2Z"/>
        <path class="cls-2" d="M110.16,43c-.5.3-1.3.2-1.6-.4-.5-.7-1-1.4-1.5-2.1-.4-.5-.3-1.3.2-1.7h.2c.5-.2,1.1,0,1.5.3.5.7,1.1,1.5,1.6,2.3.3.6.2,1.3-.4,1.6h0Z"/>
        <path class="cls-2" d="M115.46,53.4c.4,1.9.7,3.9.8,5.9,0,.7-.5,1.2-1.1,1.2s-1.2-.5-1.2-1.1c0-1.8-.4-3.7-.8-5.5-.4-1.9-1-3.8-1.8-5.6-.2-.6,0-1.2.6-1.5h0c.6-.2,1.3,0,1.5.7.8,1.9,1.4,4,1.9,6h0l.1-.1Z"/>
        <path class="cls-2" d="M106.66,84.9c-.5-.4-.6-1.2-.2-1.7,1-1.3,2-2.8,2.9-4.2.8-1.4,1.6-3,2.2-4.5.6-1.6,1.1-3.2,1.5-4.8.4-1.7.7-3.4.8-5.1,0-.4.3-.8.7-.9h.6c.7,0,1.1.6,1.1,1.3-.2,1.8-.5,3.6-.9,5.4-.4,1.7-1,3.5-1.6,5.1-.7,1.7-1.4,3.3-2.3,4.8-.9,1.6-1.9,3.1-3.1,4.5-.4.5-1.2.6-1.7.2h0v-.1Z"/>
        <path class="cls-2" d="M119.06,50.9c.2.6-.2,1.3-.8,1.4-.6.2-1.3-.2-1.5-.8-.5-2.1-1.3-4.1-2.2-6.1-.2-.4-.4-.9-.6-1.3-.2-.3-.3-.6-.5-1-.3-.6,0-1.3.5-1.6h0c.6-.3,1.3,0,1.6.5.2.3.4.7.5,1,.2.4.4.9.6,1.4.9,2.1,1.7,4.2,2.3,6.4h0l.1.1Z"/>
        <path class="cls-2" d="M120.16,57.2c.2,2,.3,4.1.2,6.2,0,.7-.6,1.2-1.2,1.1-.7,0-1.2-.6-1.1-1.2,0-1.9,0-3.9-.2-5.8,0-.5.2-1,.7-1.2h.4c.7,0,1.2.4,1.3,1.1h0v-.2h-.1Z"/>
        <path class="cls-2" d="M122.56,48.5c.7,2.2,1.2,4.5,1.5,6.8.3,2.2.4,4.5.4,6.7s-.2,4.4-.5,6.5c0,.7-.7,1.1-1.4,1-.7,0-1.1-.7-1-1.4.3-2,.5-4.1.5-6.2s0-4.2-.4-6.3c-.3-2.2-.8-4.4-1.4-6.5-.2-.8-.5-1.6-.8-2.3-.2-.6,0-1.2.6-1.5h0c.6-.2,1.3,0,1.5.7.3.8.6,1.6.8,2.4h.2v.1Z"/>
        <path class="cls-2" d="M122.46,74.8c-.6,2.1-1.4,4.1-2.4,6.1-1,2.1-2.1,4.1-3.4,6-.4.5-1.1.7-1.7.3-.5-.4-.7-1.1-.3-1.7,1.2-1.8,2.3-3.7,3.2-5.7.9-1.9,1.6-3.8,2.2-5.8,0-.3.3-.6.6-.7s.6-.2.9,0c.6.2,1,.9.8,1.5h.1Z"/>
        <path class="cls-2" d="M110.36,91.1c.4-.2,1-.2,1.3.2.5.4.5,1.2,0,1.7-3.6,3.8-7.8,6.8-12.5,9.2h0c-2.4,1.2-4.9,1.8-7.6,1.8s-5.1-.5-7.4-1.6c-.6-.3-.8-1-.6-1.6,0-.3.3-.4.5-.6.3-.2.7-.2,1,0,4.1,1.9,8.8,1.8,12.9-.2h0c4.5-2.2,8.4-5.1,11.8-8.7,0,0,.2-.2.3-.2h.3,0Z"/>
        <path class="cls-2" d="M134.86,91.5c.3-.2.7-.2,1.1,0,.6.3.8,1,.5,1.6-2,3.7-4.4,7.2-7.1,10.4-2.8,3.4-6,6.5-9.5,9.2-3.5,2.8-7.4,5.3-11.5,7.3h0s-.2,0-.3.2c-.6.3-1.3,0-1.6-.6,0-.3-.2-.6,0-.8h0c0-.3.3-.6.5-.7h.4c7.8-3.9,14.6-9.3,20.2-16,2.6-3.1,4.9-6.5,6.9-10.1,0-.2.3-.4.5-.5h-.1Z"/>
        <path class="cls-2" d="M139.36,79.9c0-.3.3-.6.6-.7s.6-.2.9,0c.6.2,1,.8.8,1.5-.3.9-.6,1.9-.9,2.8-.2.6-.9.9-1.5.7s-.9-.9-.7-1.5c.3-.9.6-1.8.9-2.7h-.1v-.1Z"/>
        <path class="cls-2" d="M118.96,118.4c-.5.4-1.3.2-1.7-.3s-.2-1.3.3-1.7c5-3.5,9.4-7.6,13.3-12.3,2.8-3.4,5.2-7.1,7.3-10.9.5-.9,1-1.9,1.5-2.9s.3-.4.5-.6c.3-.2.7-.2,1,0,.6.3.8,1,.6,1.6l-1.5,3c-2.1,4-4.7,7.8-7.5,11.3-4,4.9-8.6,9.2-13.7,12.8h-.1Z"/>
        <path class="cls-2" d="M119.66,69.4c-.4,1.9-.9,3.8-1.5,5.7-.7,1.9-1.4,3.7-2.3,5.5-.3.6-1,.8-1.6.5s-.8-1-.5-1.6c.8-1.7,1.6-3.4,2.2-5.2s1.1-3.6,1.5-5.4c0-.4.3-.7.6-.8.2,0,.5-.2.8,0,.6,0,1.1.8.9,1.4h0l-.1-.1Z"/>
        <path class="cls-2" d="M112.56,85.8c-1.3,1.8-2.8,3.6-4.5,5.2-.5.5-1.2.4-1.7,0-.5-.5-.5-1.2,0-1.7,1.5-1.5,2.9-3.2,4.2-4.9,0-.2.3-.3.4-.4.4-.2.8-.2,1.2,0,.5.4.7,1.1.3,1.7h0l.1.1Z"/>
        <path class="cls-2" d="M136.66,82.9c-1.1,3.1-2.5,6.1-4.2,9-.3.6-1,.8-1.6.4-.6-.3-.8-1.1-.5-1.6,1.6-2.8,2.9-5.7,4-8.6,1-2.7,1.8-5.6,2.4-8.4,0-.4.3-.7.6-.8.2,0,.5-.2.8,0,.6,0,1,.8.9,1.4-.6,3-1.5,5.9-2.5,8.8h0v-.2h.1Z"/>
        <path class="cls-2" d="M82.46,118.8c-.6-.2-1-.8-.8-1.5,0-.3.3-.6.6-.7.2,0,.5-.2.8,0,7.2,2,14.9,1.4,21.6-1.8,0,0,.2,0,.3-.2h.4c7.1-3.6,13.4-8.5,18.5-14.5.4-.5,1.2-.6,1.7,0s.6,1.2,0,1.7c-5.3,6.3-11.8,11.4-19.2,15.1h0s-.2,0-.3.2c-7.2,3.5-15.5,4.3-23.2,2.2h-.4v-.4h0v-.1Z"/>
        <path class="cls-2" d="M132.26,56.7c0,.8,0,1.7.2,2.5,0,2.5,0,5.1-.2,7.6,0,.7-.7,1.1-1.3,1.1s-1.1-.7-1.1-1.3c.2-2.4.3-4.9.2-7.3,0-.8,0-1.6-.2-2.4,0-.5.2-1,.7-1.2h.4c.7,0,1.2.4,1.3,1.1h0v-.1Z"/>
        <path class="cls-2" d="M126.26,81c1-2.3,1.7-4.7,2.3-7.1,0-.3.3-.6.6-.8.2,0,.5-.2.8,0,.6.2,1,.8.9,1.4-.6,2.5-1.5,5-2.5,7.4-1.1,2.6-2.3,5.1-3.8,7.5-1.7,2.8-3.6,5.4-5.8,7.8-.4.5-1.2.5-1.7,0-.5-.4-.5-1.2,0-1.7,2.1-2.3,3.9-4.8,5.5-7.5,1.4-2.3,2.6-4.7,3.6-7.2h0v.2h.1Z"/>
        <path class="cls-2" d="M75.66,104.9s.2-.2.4-.3c.4-.2.9-.2,1.3,0,2,1.6,4.3,2.8,6.8,3.7,5.8,2,12,1.6,17.5-1.1h.2c.6-.3,1.3,0,1.6.5.3.6,0,1.3-.5,1.6,0,0-.2,0-.3.2-3.1,1.5-6.3,2.3-9.7,2.5-3.3.2-6.5-.3-9.6-1.3-2.7-.9-5.2-2.3-7.5-4.1-.5-.4-.6-1.2-.2-1.7h0Z"/>
        <path class="cls-2" d="M66.56,82.6c.2-.9.3-1.8.6-2.7.2-.5.3-1.1.5-1.6,0-.3.3-.5.6-.7s.6-.2.9,0c.6.2,1,.9.7,1.5-.4,1.2-.8,2.5-1,3.8v.2c-.2,1.3-.3,2.6-.3,3.8s.2,2.9.5,4.3c.3,1.5.8,3,1.4,4.5.2.3.3.7.5,1,.6,1.2,1.3,2.4,2.1,3.5.4.5.3,1.3-.2,1.7s-1.3.3-1.7-.2c-.9-1.2-1.7-2.5-2.4-3.8-.2-.4-.4-.7-.5-1.1-.7-1.6-1.2-3.2-1.6-4.9-.3-1.6-.5-3.2-.5-4.8s0-3,.3-4.5h.1Z"/>
        <path class="cls-2" d="M83.86,59.5h0v.3h0v.2h0v.2h0v.2h0v.2h0v.2h0v.2h0v.2h0v.2h0c0,.3,0,.6-.2.8-.2.7-.6,1.2-1.1,1.8-.4.4-.9.8-1.5,1.1-1.8.9-3.5,2.1-5.1,3.4-1,.9-1.9,1.8-2.7,2.9-.4.5-1.2.6-1.7.2h0s-.2-.2-.2-.3c-.2-.4-.2-.8,0-1.2h0c.9-1.1,1.9-2.2,3-3.2,1.7-1.5,3.6-2.8,5.6-3.8,1.3-.7,1.9-2.2,1.4-3.6h0v-.2c-.7-1.4-2.4-2-3.8-1.3-2.2,1.1-4.2,2.4-6,3.9-.5.4-1.2.3-1.7-.2-.4-.5-.3-1.2.2-1.7,2-1.6,4.2-3.1,6.5-4.2,2.6-1.3,5.7-.2,7,2.3,0,0,0,.2.2.3h0v1.1h.1Z"/>
        <path class="cls-2" d="M132.56,82.3c-.2.6-.9.9-1.5.7s-.9-.9-.7-1.5c1-2.5,1.8-5.1,2.4-7.8.6-2.6,1-5.2,1.2-7.8,0-.4.3-.8.7-1h.6c.7,0,1.1.6,1.1,1.3-.2,2.7-.7,5.4-1.2,8.1-.6,2.8-1.5,5.5-2.5,8.1h0l-.1-.1Z"/>
        <path class="cls-2" d="M128.56,90.6c-1.8,3.1-3.9,6-6.2,8.7-4.9,5.7-10.8,10.2-17.6,13.6l-.3.2c-6.7,3.3-14.3,3.9-21.5,1.7-3-.9-5.9-2.3-8.5-4.2-2-1.4-3.8-3.1-5.4-5-1.3-1.6-2.5-3.4-3.5-5.3,0-.2-.2-.3-.3-.5-.3-.6,0-1.3.5-1.6s1.3,0,1.6.5c0,.2.2.3.2.5.9,1.7,2,3.4,3.2,4.8,1.5,1.7,3.1,3.3,5,4.6,2.4,1.7,5,3,7.8,3.8,6.6,2,13.6,1.5,19.8-1.5l.3-.2c6.5-3.2,12.2-7.6,16.9-13.1,2.2-2.6,4.3-5.4,6-8.3.3-.6,1.1-.8,1.6-.4.6.3.8,1.1.4,1.6h0v.1Z"/>
        <path class="cls-2" d="M65.66,94.3c.2.6-.2,1.3-.8,1.5s-1.3-.2-1.5-.8c-.5-1.7-.8-3.4-1-5.2-.2-1.6-.2-3.3,0-4.9,0-.4.3-.8.7-1h.6c.7,0,1.2.6,1.1,1.3v4.5c.2,1.6.5,3.2.9,4.7h0v-.1Z"/>
        <path class="cls-2" d="M64.36,75.9c0-.3.3-.5.6-.6s.6-.2,1,0c.6.2.9.9.7,1.5-.5,1.3-.9,2.6-1.2,4-.2.6-.8,1-1.4.9-.6-.2-1-.8-.9-1.4.3-1.5.8-2.9,1.3-4.3h0l-.1-.1Z"/>
        <path class="cls-2" d="M74.86,62.6c1.2-.8,2.4-1.5,3.6-2.1s1.3,0,1.6.5,0,1.3-.5,1.6c-1.2.6-2.3,1.2-3.3,1.9-1.1.7-2.1,1.5-3,2.4-1,.9-1.8,1.8-2.7,2.9-.8,1-1.6,2.1-2.2,3.3s-1.1.8-1.6.4c-.6-.3-.8-1.1-.4-1.6.7-1.2,1.6-2.4,2.5-3.6.9-1.1,1.9-2.2,2.9-3.1s2.1-1.8,3.3-2.6h-.2Z"/>
      </g>
    </g>
  </g>
</svg>