<svg width="41" height="41" viewBox="0 0 41 41" fill="none" xmlns="http://www.w3.org/2000/svg">
<path d="M20.5007 34.1667V16.7417C20.5007 13.8307 20.6835 10.619 17.7025 9.10028C16.6057 8.54166 15.1707 8.54166 12.3007 8.54166H7.85908C5.74758 8.54166 5.12575 9.2882 5.12575 11.275V26.3083C5.12575 27.2787 5.06425 28.3498 6.0585 28.8554C6.42408 29.0417 6.9007 29.0417 7.85566 29.0417H12.6937C16.7544 29.0417 18.2628 30.8115 20.499 34.1667C22.737 30.8115 24.2454 29.0417 28.3061 29.0417H33.1458C34.1008 29.0417 34.5791 29.0417 34.943 28.8554C35.9355 28.3498 35.8757 27.2769 35.8757 26.3083V11.275C35.8757 9.28649 35.2522 8.54166 33.1424 8.54166H28.7007C25.8307 8.54166 24.394 8.54166 23.2973 9.10028C20.3145 10.619 20.499 13.8307 20.499 16.7417" stroke="#7568FF" stroke-width="2.5625" stroke-linecap="round" stroke-linejoin="round"/>
</svg>
