<svg width="41" height="42" viewBox="0 0 41 42" fill="none" xmlns="http://www.w3.org/2000/svg">
<path d="M20.5 26.125C20.5 27.4842 21.04 28.7878 22.0011 29.7489C22.9622 30.71 24.2658 31.25 25.625 31.25C26.9842 31.25 28.2878 30.71 29.2489 29.7489C30.21 28.7878 30.75 27.4842 30.75 26.125C30.75 24.7658 30.21 23.4622 29.2489 22.5011C28.2878 21.54 26.9842 21 25.625 21C24.2658 21 22.9622 21.54 22.0011 22.5011C21.04 23.4622 20.5 24.7658 20.5 26.125Z" stroke="#7568FF" stroke-width="3.41667" stroke-linecap="round" stroke-linejoin="round"/>
<path d="M22.207 30.3958V38.0833L25.6237 35.5208L29.0404 38.0833V30.3958" stroke="#7568FF" stroke-width="3.41667" stroke-linecap="round" stroke-linejoin="round"/>
<path d="M17.0833 32.9583H8.54167C7.63551 32.9583 6.76647 32.5984 6.12572 31.9576C5.48497 31.3169 5.125 30.4478 5.125 29.5417V12.4583C5.125 10.5792 6.6625 9.04166 8.54167 9.04166H32.4583C33.3645 9.04166 34.2335 9.40163 34.8743 10.0424C35.515 10.6831 35.875 11.5522 35.875 12.4583V29.5417C35.8744 30.1408 35.7162 30.7293 35.4164 31.248C35.1165 31.7667 34.6856 32.1975 34.1667 32.4971M10.25 15.875H30.75M10.25 21H15.375M10.25 26.125H13.6667" stroke="#7568FF" stroke-width="3.41667" stroke-linecap="round" stroke-linejoin="round"/>
</svg>
