<svg width="41" height="41" viewBox="0 0 41 41" fill="none" xmlns="http://www.w3.org/2000/svg">
<path opacity="0.25" d="M10.2487 39.2917H3.41536C2.96229 39.2917 2.52777 39.1117 2.20739 38.7913C1.88702 38.4709 1.70703 38.0364 1.70703 37.5833V23.9167C1.70703 23.4636 1.88702 23.0291 2.20739 22.7087C2.52777 22.3883 2.96229 22.2083 3.41536 22.2083H10.2487C10.7018 22.2083 11.1363 22.3883 11.4567 22.7087C11.777 23.0291 11.957 23.4636 11.957 23.9167V37.5833C11.957 38.0364 11.777 38.4709 11.4567 38.7913C11.1363 39.1117 10.7018 39.2917 10.2487 39.2917Z" fill="#7568FF"/>
<path d="M23.9167 39.2917H17.0833C16.6303 39.2917 16.1957 39.1117 15.8754 38.7913C15.555 38.4709 15.375 38.0364 15.375 37.5833V3.41666C15.375 2.96358 15.555 2.52906 15.8754 2.20869C16.1957 1.88831 16.6303 1.70833 17.0833 1.70833H23.9167C24.3697 1.70833 24.8043 1.88831 25.1246 2.20869C25.445 2.52906 25.625 2.96358 25.625 3.41666V37.5833C25.625 38.0364 25.445 38.4709 25.1246 38.7913C24.8043 39.1117 24.3697 39.2917 23.9167 39.2917Z" fill="#7568FF"/>
<path opacity="0.5" d="M37.5846 39.2917H30.7513C30.2982 39.2917 29.8637 39.1117 29.5433 38.7913C29.223 38.4709 29.043 38.0364 29.043 37.5833V17.0833C29.043 16.6303 29.223 16.1957 29.5433 15.8754C29.8637 15.555 30.2982 15.375 30.7513 15.375H37.5846C38.0377 15.375 38.4722 15.555 38.7926 15.8754C39.113 16.1957 39.293 16.6303 39.293 17.0833V37.5833C39.293 38.0364 39.113 38.4709 38.7926 38.7913C38.4722 39.1117 38.0377 39.2917 37.5846 39.2917Z" fill="#7568FF"/>
</svg>
