<svg width="36" height="36" viewBox="0 0 36 36" fill="none" xmlns="http://www.w3.org/2000/svg">
<path d="M18.3614 5.90399C24.7154 5.90399 29.9354 10.602 30.8174 16.704H34.5614L28.2614 23.904L21.9614 16.704H26.1374C25.7344 14.9421 24.7461 13.3689 23.3339 12.241C21.9216 11.1132 20.1688 10.4973 18.3614 10.494C15.7514 10.494 13.4474 11.772 11.9894 13.698L8.91141 10.188C10.0899 8.84125 11.5429 7.76222 13.1728 7.02332C14.8027 6.28443 16.5718 5.90278 18.3614 5.90399ZM17.6414 30.096C11.3054 30.096 6.06741 25.398 5.18541 19.296H1.44141L7.74141 12.096C9.84741 14.49 11.9354 16.902 14.0414 19.296H9.86541C10.2684 21.0579 11.2567 22.6311 12.6689 23.7589C14.0812 24.8868 15.8341 25.5026 17.6414 25.506C20.2514 25.506 22.5554 24.228 24.0134 22.302L27.0914 25.812C25.9144 27.1606 24.4617 28.2409 22.8315 28.9799C21.2012 29.7189 19.4314 30.0996 17.6414 30.096Z" fill="#7568FF"/>
</svg>
